<?xml version="1.0" encoding="UTF-8" standalone="no"?>
<svg width="415.572mm" height="412.044mm"
 viewBox="0 0 1178 1168"
 xmlns="http://www.w3.org/2000/svg" xmlns:xlink="http://www.w3.org/1999/xlink"  version="1.2" baseProfile="tiny">
<title>Qt SVG Document</title>
<desc>MATLAB, The MathWorks, Inc. Version 25.1.0.2973910 R2025a Update 1</desc>
<defs>
</defs>
<g fill="none" stroke="black" stroke-width="1" fill-rule="evenodd" stroke-linecap="square" stroke-linejoin="bevel" >

<g fill="#ffffff" fill-opacity="1" stroke="none" transform="matrix(0.507563,0,0,0.505753,-910.082,-103.191)"
font-family="MS Shell Dlg 2" font-size="13.5" font-weight="400" font-style="normal" 
>
<path vector-effect="none" fill-rule="evenodd" d="M1793,204 L4113,204 L4113,2513 L1793,2513 L1793,204"/>
</g>

<g fill="#ffffff" fill-opacity="1" stroke="none" transform="matrix(5.07563e-05,0,0,5.05753e-05,-910.082,-103.191)"
font-family="MS Shell Dlg 2" font-size="13.5" font-weight="400" font-style="normal" 
>
<path vector-effect="none" fill-rule="evenodd" d="M1.858e+07,2.07e+06 L1.858e+07,2.456e+07 L4.107e+07,2.456e+07 L4.107e+07,2.07e+06 L1.858e+07,2.07e+06"/>
</g>

<g fill="#212121" fill-opacity="1" stroke="#212121" stroke-opacity="1" stroke-width="1" stroke-linecap="square" stroke-linejoin="bevel" transform="matrix(0.507563,0,0,0.505753,577.584,1166.25)"
font-family="Times New Roman" font-size="24" font-weight="400" font-style="normal" 
>
<text fill="#212121" fill-opacity="1" stroke="none" xml:space="preserve" x="0" y="0" font-family="Times New Roman" font-size="24" font-weight="400" font-style="normal" 
 >threshold t</text>
</g>

<g fill="#212121" fill-opacity="1" stroke="#212121" stroke-opacity="1" stroke-width="1" stroke-linecap="square" stroke-linejoin="round" transform="matrix(0.507563,0,0,0.505753,-910.082,-103.191)"
font-family="Times New Roman" font-size="24" font-weight="400" font-style="normal" 
>
<polyline fill="none" vector-effect="none" points="1858,2456 4107,2456 " />
<polyline fill="none" vector-effect="none" points="1858,207 4107,207 " />
<polyline fill="none" vector-effect="none" points="1858,2456 1858,2433.51 " />
<polyline fill="none" vector-effect="none" points="1858,229.49 1858,207 " />
<polyline fill="none" vector-effect="none" points="2082.9,2456 2082.9,2433.51 " />
<polyline fill="none" vector-effect="none" points="2082.9,229.49 2082.9,207 " />
<polyline fill="none" vector-effect="none" points="2307.8,2456 2307.8,2433.51 " />
<polyline fill="none" vector-effect="none" points="2307.8,229.49 2307.8,207 " />
<polyline fill="none" vector-effect="none" points="2532.7,2456 2532.7,2433.51 " />
<polyline fill="none" vector-effect="none" points="2532.7,229.49 2532.7,207 " />
<polyline fill="none" vector-effect="none" points="2757.6,2456 2757.6,2433.51 " />
<polyline fill="none" vector-effect="none" points="2757.6,229.49 2757.6,207 " />
<polyline fill="none" vector-effect="none" points="2982.5,2456 2982.5,2433.51 " />
<polyline fill="none" vector-effect="none" points="2982.5,229.49 2982.5,207 " />
<polyline fill="none" vector-effect="none" points="3207.4,2456 3207.4,2433.51 " />
<polyline fill="none" vector-effect="none" points="3207.4,229.49 3207.4,207 " />
<polyline fill="none" vector-effect="none" points="3432.3,2456 3432.3,2433.51 " />
<polyline fill="none" vector-effect="none" points="3432.3,229.49 3432.3,207 " />
<polyline fill="none" vector-effect="none" points="3657.2,2456 3657.2,2433.51 " />
<polyline fill="none" vector-effect="none" points="3657.2,229.49 3657.2,207 " />
<polyline fill="none" vector-effect="none" points="3882.1,2456 3882.1,2433.51 " />
<polyline fill="none" vector-effect="none" points="3882.1,229.49 3882.1,207 " />
<polyline fill="none" vector-effect="none" points="4107,2456 4107,2433.51 " />
<polyline fill="none" vector-effect="none" points="4107,229.49 4107,207 " />
</g>

<g fill="#212121" fill-opacity="1" stroke="#212121" stroke-opacity="1" stroke-width="1" stroke-linecap="square" stroke-linejoin="bevel" transform="matrix(0.507563,0,0,0.505753,30.4311,1152.09)"
font-family="Times New Roman" font-size="20" font-weight="400" font-style="normal" 
>
<text fill="#212121" fill-opacity="1" stroke="none" xml:space="preserve" x="0" y="0" font-family="Times New Roman" font-size="20" font-weight="400" font-style="normal" 
 >0</text>
</g>

<g fill="#212121" fill-opacity="1" stroke="#212121" stroke-opacity="1" stroke-width="1" stroke-linecap="square" stroke-linejoin="bevel" transform="matrix(0.507563,0,0,0.505753,140.775,1152.09)"
font-family="Times New Roman" font-size="20" font-weight="400" font-style="normal" 
>
<text fill="#212121" fill-opacity="1" stroke="none" xml:space="preserve" x="0" y="0" font-family="Times New Roman" font-size="20" font-weight="400" font-style="normal" 
 >0.1</text>
</g>

<g fill="#212121" fill-opacity="1" stroke="#212121" stroke-opacity="1" stroke-width="1" stroke-linecap="square" stroke-linejoin="bevel" transform="matrix(0.507563,0,0,0.505753,254.926,1152.09)"
font-family="Times New Roman" font-size="20" font-weight="400" font-style="normal" 
>
<text fill="#212121" fill-opacity="1" stroke="none" xml:space="preserve" x="0" y="0" font-family="Times New Roman" font-size="20" font-weight="400" font-style="normal" 
 >0.2</text>
</g>

<g fill="#212121" fill-opacity="1" stroke="#212121" stroke-opacity="1" stroke-width="1" stroke-linecap="square" stroke-linejoin="bevel" transform="matrix(0.507563,0,0,0.505753,369.077,1152.09)"
font-family="Times New Roman" font-size="20" font-weight="400" font-style="normal" 
>
<text fill="#212121" fill-opacity="1" stroke="none" xml:space="preserve" x="0" y="0" font-family="Times New Roman" font-size="20" font-weight="400" font-style="normal" 
 >0.3</text>
</g>

<g fill="#212121" fill-opacity="1" stroke="#212121" stroke-opacity="1" stroke-width="1" stroke-linecap="square" stroke-linejoin="bevel" transform="matrix(0.507563,0,0,0.505753,483.228,1152.09)"
font-family="Times New Roman" font-size="20" font-weight="400" font-style="normal" 
>
<text fill="#212121" fill-opacity="1" stroke="none" xml:space="preserve" x="0" y="0" font-family="Times New Roman" font-size="20" font-weight="400" font-style="normal" 
 >0.4</text>
</g>

<g fill="#212121" fill-opacity="1" stroke="#212121" stroke-opacity="1" stroke-width="1" stroke-linecap="square" stroke-linejoin="bevel" transform="matrix(0.507563,0,0,0.505753,597.379,1152.09)"
font-family="Times New Roman" font-size="20" font-weight="400" font-style="normal" 
>
<text fill="#212121" fill-opacity="1" stroke="none" xml:space="preserve" x="0" y="0" font-family="Times New Roman" font-size="20" font-weight="400" font-style="normal" 
 >0.5</text>
</g>

<g fill="#212121" fill-opacity="1" stroke="#212121" stroke-opacity="1" stroke-width="1" stroke-linecap="square" stroke-linejoin="bevel" transform="matrix(0.507563,0,0,0.505753,711.529,1152.09)"
font-family="Times New Roman" font-size="20" font-weight="400" font-style="normal" 
>
<text fill="#212121" fill-opacity="1" stroke="none" xml:space="preserve" x="0" y="0" font-family="Times New Roman" font-size="20" font-weight="400" font-style="normal" 
 >0.6</text>
</g>

<g fill="#212121" fill-opacity="1" stroke="#212121" stroke-opacity="1" stroke-width="1" stroke-linecap="square" stroke-linejoin="bevel" transform="matrix(0.507563,0,0,0.505753,825.68,1152.09)"
font-family="Times New Roman" font-size="20" font-weight="400" font-style="normal" 
>
<text fill="#212121" fill-opacity="1" stroke="none" xml:space="preserve" x="0" y="0" font-family="Times New Roman" font-size="20" font-weight="400" font-style="normal" 
 >0.7</text>
</g>

<g fill="#212121" fill-opacity="1" stroke="#212121" stroke-opacity="1" stroke-width="1" stroke-linecap="square" stroke-linejoin="bevel" transform="matrix(0.507563,0,0,0.505753,939.831,1152.09)"
font-family="Times New Roman" font-size="20" font-weight="400" font-style="normal" 
>
<text fill="#212121" fill-opacity="1" stroke="none" xml:space="preserve" x="0" y="0" font-family="Times New Roman" font-size="20" font-weight="400" font-style="normal" 
 >0.8</text>
</g>

<g fill="#212121" fill-opacity="1" stroke="#212121" stroke-opacity="1" stroke-width="1" stroke-linecap="square" stroke-linejoin="bevel" transform="matrix(0.507563,0,0,0.505753,1053.98,1152.09)"
font-family="Times New Roman" font-size="20" font-weight="400" font-style="normal" 
>
<text fill="#212121" fill-opacity="1" stroke="none" xml:space="preserve" x="0" y="0" font-family="Times New Roman" font-size="20" font-weight="400" font-style="normal" 
 >0.9</text>
</g>

<g fill="#212121" fill-opacity="1" stroke="#212121" stroke-opacity="1" stroke-width="1" stroke-linecap="square" stroke-linejoin="bevel" transform="matrix(0.507563,0,0,0.505753,1171.94,1152.09)"
font-family="Times New Roman" font-size="20" font-weight="400" font-style="normal" 
>
<text fill="#212121" fill-opacity="1" stroke="none" xml:space="preserve" x="0" y="0" font-family="Times New Roman" font-size="20" font-weight="400" font-style="normal" 
 >1</text>
</g>

<g fill="#212121" fill-opacity="1" stroke="#212121" stroke-opacity="1" stroke-width="1" stroke-linecap="square" stroke-linejoin="bevel" transform="matrix(0,-0.505753,0.507563,0,10.1286,610.68)"
font-family="Times New Roman" font-size="24" font-weight="400" font-style="normal" 
>
<text fill="#212121" fill-opacity="1" stroke="none" xml:space="preserve" x="0" y="0" font-family="Times New Roman" font-size="24" font-weight="400" font-style="normal" 
 >error probability</text>
</g>

<g fill="#212121" fill-opacity="1" stroke="#212121" stroke-opacity="1" stroke-width="1" stroke-linecap="square" stroke-linejoin="round" transform="matrix(0.507563,0,0,0.505753,-910.082,-103.191)"
font-family="Times New Roman" font-size="24" font-weight="400" font-style="normal" 
>
<polyline fill="none" vector-effect="none" points="1858,2456 1858,207 " />
<polyline fill="none" vector-effect="none" points="4107,2456 4107,207 " />
<polyline fill="none" vector-effect="none" points="1858,2456 1880.49,2456 " />
<polyline fill="none" vector-effect="none" points="4084.51,2456 4107,2456 " />
<polyline fill="none" vector-effect="none" points="1858,2241.81 1880.49,2241.81 " />
<polyline fill="none" vector-effect="none" points="4084.51,2241.81 4107,2241.81 " />
<polyline fill="none" vector-effect="none" points="1858,2027.62 1880.49,2027.62 " />
<polyline fill="none" vector-effect="none" points="4084.51,2027.62 4107,2027.62 " />
<polyline fill="none" vector-effect="none" points="1858,1813.43 1880.49,1813.43 " />
<polyline fill="none" vector-effect="none" points="4084.51,1813.43 4107,1813.43 " />
<polyline fill="none" vector-effect="none" points="1858,1599.24 1880.49,1599.24 " />
<polyline fill="none" vector-effect="none" points="4084.51,1599.24 4107,1599.24 " />
<polyline fill="none" vector-effect="none" points="1858,1385.05 1880.49,1385.05 " />
<polyline fill="none" vector-effect="none" points="4084.51,1385.05 4107,1385.05 " />
<polyline fill="none" vector-effect="none" points="1858,1170.86 1880.49,1170.86 " />
<polyline fill="none" vector-effect="none" points="4084.51,1170.86 4107,1170.86 " />
<polyline fill="none" vector-effect="none" points="1858,956.667 1880.49,956.667 " />
<polyline fill="none" vector-effect="none" points="4084.51,956.667 4107,956.667 " />
<polyline fill="none" vector-effect="none" points="1858,742.476 1880.49,742.476 " />
<polyline fill="none" vector-effect="none" points="4084.51,742.476 4107,742.476 " />
<polyline fill="none" vector-effect="none" points="1858,528.286 1880.49,528.286 " />
<polyline fill="none" vector-effect="none" points="4084.51,528.286 4107,528.286 " />
<polyline fill="none" vector-effect="none" points="1858,314.095 1880.49,314.095 " />
<polyline fill="none" vector-effect="none" points="4084.51,314.095 4107,314.095 " />
</g>

<g fill="#212121" fill-opacity="1" stroke="#212121" stroke-opacity="1" stroke-width="1" stroke-linecap="square" stroke-linejoin="bevel" transform="matrix(0.507563,0,0,0.505753,23.8328,1142.23)"
font-family="Times New Roman" font-size="20" font-weight="400" font-style="normal" 
>
<text fill="#212121" fill-opacity="1" stroke="none" xml:space="preserve" x="0" y="0" font-family="Times New Roman" font-size="20" font-weight="400" font-style="normal" 
 >0</text>
</g>

<g fill="#212121" fill-opacity="1" stroke="#212121" stroke-opacity="1" stroke-width="1" stroke-linecap="square" stroke-linejoin="bevel" transform="matrix(0.507563,0,0,0.505753,16.2193,1033.9)"
font-family="Times New Roman" font-size="20" font-weight="400" font-style="normal" 
>
<text fill="#212121" fill-opacity="1" stroke="none" xml:space="preserve" x="0" y="0" font-family="Times New Roman" font-size="20" font-weight="400" font-style="normal" 
 >0.1</text>
</g>

<g fill="#212121" fill-opacity="1" stroke="#212121" stroke-opacity="1" stroke-width="1" stroke-linecap="square" stroke-linejoin="bevel" transform="matrix(0.507563,0,0,0.505753,16.2193,925.572)"
font-family="Times New Roman" font-size="20" font-weight="400" font-style="normal" 
>
<text fill="#212121" fill-opacity="1" stroke="none" xml:space="preserve" x="0" y="0" font-family="Times New Roman" font-size="20" font-weight="400" font-style="normal" 
 >0.2</text>
</g>

<g fill="#212121" fill-opacity="1" stroke="#212121" stroke-opacity="1" stroke-width="1" stroke-linecap="square" stroke-linejoin="bevel" transform="matrix(0.507563,0,0,0.505753,16.2193,817.244)"
font-family="Times New Roman" font-size="20" font-weight="400" font-style="normal" 
>
<text fill="#212121" fill-opacity="1" stroke="none" xml:space="preserve" x="0" y="0" font-family="Times New Roman" font-size="20" font-weight="400" font-style="normal" 
 >0.3</text>
</g>

<g fill="#212121" fill-opacity="1" stroke="#212121" stroke-opacity="1" stroke-width="1" stroke-linecap="square" stroke-linejoin="bevel" transform="matrix(0.507563,0,0,0.505753,16.2193,708.916)"
font-family="Times New Roman" font-size="20" font-weight="400" font-style="normal" 
>
<text fill="#212121" fill-opacity="1" stroke="none" xml:space="preserve" x="0" y="0" font-family="Times New Roman" font-size="20" font-weight="400" font-style="normal" 
 >0.4</text>
</g>

<g fill="#212121" fill-opacity="1" stroke="#212121" stroke-opacity="1" stroke-width="1" stroke-linecap="square" stroke-linejoin="bevel" transform="matrix(0.507563,0,0,0.505753,16.2193,600.589)"
font-family="Times New Roman" font-size="20" font-weight="400" font-style="normal" 
>
<text fill="#212121" fill-opacity="1" stroke="none" xml:space="preserve" x="0" y="0" font-family="Times New Roman" font-size="20" font-weight="400" font-style="normal" 
 >0.5</text>
</g>

<g fill="#212121" fill-opacity="1" stroke="#212121" stroke-opacity="1" stroke-width="1" stroke-linecap="square" stroke-linejoin="bevel" transform="matrix(0.507563,0,0,0.505753,16.2193,492.261)"
font-family="Times New Roman" font-size="20" font-weight="400" font-style="normal" 
>
<text fill="#212121" fill-opacity="1" stroke="none" xml:space="preserve" x="0" y="0" font-family="Times New Roman" font-size="20" font-weight="400" font-style="normal" 
 >0.6</text>
</g>

<g fill="#212121" fill-opacity="1" stroke="#212121" stroke-opacity="1" stroke-width="1" stroke-linecap="square" stroke-linejoin="bevel" transform="matrix(0.507563,0,0,0.505753,16.2193,383.934)"
font-family="Times New Roman" font-size="20" font-weight="400" font-style="normal" 
>
<text fill="#212121" fill-opacity="1" stroke="none" xml:space="preserve" x="0" y="0" font-family="Times New Roman" font-size="20" font-weight="400" font-style="normal" 
 >0.7</text>
</g>

<g fill="#212121" fill-opacity="1" stroke="#212121" stroke-opacity="1" stroke-width="1" stroke-linecap="square" stroke-linejoin="bevel" transform="matrix(0.507563,0,0,0.505753,16.2193,275.606)"
font-family="Times New Roman" font-size="20" font-weight="400" font-style="normal" 
>
<text fill="#212121" fill-opacity="1" stroke="none" xml:space="preserve" x="0" y="0" font-family="Times New Roman" font-size="20" font-weight="400" font-style="normal" 
 >0.8</text>
</g>

<g fill="#212121" fill-opacity="1" stroke="#212121" stroke-opacity="1" stroke-width="1" stroke-linecap="square" stroke-linejoin="bevel" transform="matrix(0.507563,0,0,0.505753,16.2193,167.279)"
font-family="Times New Roman" font-size="20" font-weight="400" font-style="normal" 
>
<text fill="#212121" fill-opacity="1" stroke="none" xml:space="preserve" x="0" y="0" font-family="Times New Roman" font-size="20" font-weight="400" font-style="normal" 
 >0.9</text>
</g>

<g fill="#212121" fill-opacity="1" stroke="#212121" stroke-opacity="1" stroke-width="1" stroke-linecap="square" stroke-linejoin="bevel" transform="matrix(0.507563,0,0,0.505753,23.8328,58.9512)"
font-family="Times New Roman" font-size="20" font-weight="400" font-style="normal" 
>
<text fill="#212121" fill-opacity="1" stroke="none" xml:space="preserve" x="0" y="0" font-family="Times New Roman" font-size="20" font-weight="400" font-style="normal" 
 >1</text>
</g>

<g fill="none" stroke="#1171be" stroke-opacity="1" stroke-width="3" stroke-linecap="butt" stroke-linejoin="round" transform="matrix(0.507563,0,0,0.505753,-910.082,-103.191)"
font-family="Times New Roman" font-size="20" font-weight="400" font-style="normal" 
>
<polyline fill="none" vector-effect="none" points="1858,314.095 1860.25,314.095 1862.5,314.095 1864.75,314.095 1867,314.095 1869.24,314.095 1871.49,314.095 1873.74,314.095 1875.99,314.095 1878.24,314.095 1880.49,314.095 1882.74,314.095 1884.99,314.095 1887.24,314.095 1889.49,314.095 1891.73,314.095 1893.98,314.095 1896.23,314.095 1898.48,314.095 1900.73,314.095 1902.98,314.095 1905.23,314.095 1907.48,314.095 1909.73,314.095 1911.98,314.095 1914.22,314.095 1916.47,314.095 1918.72,314.095 1920.97,314.095 1923.22,314.095 1925.47,314.095 1927.72,314.095 1929.97,314.095 1932.22,314.095 1934.47,314.095 1936.71,314.095 1938.96,314.095 1941.21,314.095 1943.46,314.095 1945.71,314.095 1947.96,314.095 1950.21,314.095 1952.46,314.095 1954.71,314.095 1956.96,314.095 1959.2,314.095 1961.45,314.095 1963.7,314.095 1965.95,314.095 1968.2,314.095 1970.45,314.095 1972.7,314.095 1974.95,314.095 1977.2,314.095 1979.45,314.095 1981.69,314.095 1983.94,314.095 1986.19,314.095 1988.44,314.095 1990.69,314.095 1992.94,314.095 1995.19,314.095 1997.44,314.095 1999.69,314.095 2001.94,314.095 2004.18,314.095 2006.43,314.095 2008.68,314.095 2010.93,314.095 2013.18,314.095 2015.43,314.095 2017.68,314.273 2019.93,314.776 2022.18,315.56 2024.43,316.581 2026.68,317.795 2028.92,319.156 2031.17,320.621 2033.42,322.145 2035.67,323.684 2037.92,325.193 2040.17,326.813 2042.42,328.685 2044.67,330.764 2046.92,333.006 2049.17,335.366 2051.41,337.8 2053.66,340.264 2055.91,342.713 2058.16,345.103 2060.41,347.389 2062.66,349.451 2064.91,351.268 2067.16,352.944 2069.41,354.585 2071.66,356.297 2073.9,358.183 2076.15,360.35 2078.4,362.903 2080.65,365.946 2082.9,369.585 2085.15,376.064 2087.4,387.103 2089.65,402.025 2091.9,420.153 2094.15,440.807 2096.39,463.31 2098.64,486.984 2100.89,511.151 2103.14,535.132 2105.39,558.25 2107.64,581.529 2109.89,606.318 2112.14,632.421 2114.39,659.647 2116.64,687.8 2118.88,716.687 2121.13,746.114 2123.38,775.888 2125.63,805.814 2127.88,835.699 2130.13,865.601 2132.38,895.767 2134.63,926.289 2136.88,957.257 2139.13,988.763 2141.37,1020.9 2143.62,1053.75 2145.87,1087.42 2148.12,1121.98 2150.37,1157.54 2152.62,1194.78 2154.87,1234.04 2157.12,1274.89 2159.37,1316.87 2161.61,1359.56 2163.86,1402.51 2166.11,1445.29 2168.36,1487.45 2170.61,1528.55 2172.86,1568.16 2175.11,1607.45 2177.36,1647.54 2179.61,1687.9 2181.86,1728.01 2184.1,1767.36 2186.35,1805.42 2188.6,1841.68 2190.85,1875.61 2193.1,1906.69 2195.35,1934.4 2197.6,1959.08 2199.85,1981.7 2202.1,2002.62 2204.35,2022.24 2206.59,2040.95 2208.84,2059.12 2211.09,2077.14 2213.34,2095.4 2215.59,2114.27 2217.84,2134.16 2220.09,2155.77 2222.34,2179.11 2224.59,2203.49 2226.84,2228.21 2229.08,2252.58 2231.33,2275.92 2233.58,2297.52 2235.83,2316.7 2238.08,2332.76 2240.33,2345.02 2242.58,2354.78 2244.83,2363.84 2247.08,2372.18 2249.33,2379.84 2251.57,2386.8 2253.82,2393.09 2256.07,2398.71 2258.32,2403.66 2260.57,2407.96 2262.82,2411.61 2265.07,2414.93 2267.32,2418.18 2269.57,2421.3 2271.82,2424.22 2274.06,2426.87 2276.31,2429.19 2278.56,2431.11 2280.81,2432.56 2283.06,2433.48 2285.31,2433.8 2287.56,2433.8 2289.81,2433.8 2292.06,2433.8 2294.31,2433.8 2296.55,2433.8 2298.8,2433.8 2301.05,2433.8 2303.3,2433.8 2305.55,2433.8 2307.8,2433.8 2310.05,2434.43 2312.3,2436.11 2314.55,2438.6 2316.8,2441.62 2319.04,2444.9 2321.29,2448.19 2323.54,2451.21 2325.79,2453.69 2328.04,2455.38 2330.29,2456 2332.54,2456 2334.79,2456 2337.04,2456 2339.29,2456 2341.53,2456 2343.78,2456 2346.03,2456 2348.28,2456 2350.53,2456 2352.78,2456 2355.03,2456 2357.28,2456 2359.53,2456 2361.78,2456 2364.02,2456 2366.27,2456 2368.52,2456 2370.77,2456 2373.02,2456 2375.27,2456 2377.52,2456 2379.77,2456 2382.02,2456 2384.27,2456 2386.51,2456 2388.76,2456 2391.01,2456 2393.26,2456 2395.51,2456 2397.76,2456 2400.01,2456 2402.26,2456 2404.51,2456 2406.76,2456 2409.01,2456 2411.25,2456 2413.5,2456 2415.75,2456 2418,2456 2420.25,2456 2422.5,2456 2424.75,2456 2427,2456 2429.25,2456 2431.49,2456 2433.74,2456 2435.99,2456 2438.24,2456 2440.49,2456 2442.74,2456 2444.99,2456 2447.24,2456 2449.49,2456 2451.74,2456 2453.98,2456 2456.23,2456 2458.48,2456 2460.73,2456 2462.98,2456 2465.23,2456 2467.48,2456 2469.73,2456 2471.98,2456 2474.23,2456 2476.48,2456 2478.72,2456 2480.97,2456 2483.22,2456 2485.47,2456 2487.72,2456 2489.97,2456 2492.22,2456 2494.47,2456 2496.72,2456 2498.97,2456 2501.21,2456 2503.46,2456 2505.71,2456 2507.96,2456 2510.21,2456 2512.46,2456 2514.71,2456 2516.96,2456 2519.21,2456 2521.46,2456 2523.7,2456 2525.95,2456 2528.2,2456 2530.45,2456 2532.7,2456 2534.95,2456 2537.2,2456 2539.45,2456 2541.7,2456 2543.95,2456 2546.19,2456 2548.44,2456 2550.69,2456 2552.94,2456 2555.19,2456 2557.44,2456 2559.69,2456 2561.94,2456 2564.19,2456 2566.44,2456 2568.68,2456 2570.93,2456 2573.18,2456 2575.43,2456 2577.68,2456 2579.93,2456 2582.18,2456 2584.43,2456 2586.68,2456 2588.93,2456 2591.17,2456 2593.42,2456 2595.67,2456 2597.92,2456 2600.17,2456 2602.42,2456 2604.67,2456 2606.92,2456 2609.17,2456 2611.42,2456 2613.66,2456 2615.91,2456 2618.16,2456 2620.41,2456 2622.66,2456 2624.91,2456 2627.16,2456 2629.41,2456 2631.66,2456 2633.91,2456 2636.15,2456 2638.4,2456 2640.65,2456 2642.9,2456 2645.15,2456 2647.4,2456 2649.65,2456 2651.9,2456 2654.15,2456 2656.4,2456 2658.64,2456 2660.89,2456 2663.14,2456 2665.39,2456 2667.64,2456 2669.89,2456 2672.14,2456 2674.39,2456 2676.64,2456 2678.89,2456 2681.13,2456 2683.38,2456 2685.63,2456 2687.88,2456 2690.13,2456 2692.38,2456 2694.63,2456 2696.88,2456 2699.13,2456 2701.38,2456 2703.62,2456 2705.87,2456 2708.12,2456 2710.37,2456 2712.62,2456 2714.87,2456 2717.12,2456 2719.37,2456 2721.62,2456 2723.86,2456 2726.11,2456 2728.36,2456 2730.61,2456 2732.86,2456 2735.11,2456 2737.36,2456 2739.61,2456 2741.86,2456 2744.11,2456 2746.35,2456 2748.6,2456 2750.85,2456 2753.1,2456 2755.35,2456 2757.6,2456 2759.85,2456 2762.1,2456 2764.35,2456 2766.6,2456 2768.84,2456 2771.09,2456 2773.34,2456 2775.59,2456 2777.84,2456 2780.09,2456 2782.34,2456 2784.59,2456 2786.84,2456 2789.09,2456 2791.33,2456 2793.58,2456 2795.83,2456 2798.08,2456 2800.33,2456 2802.58,2456 2804.83,2456 2807.08,2456 2809.33,2456 2811.58,2456 2813.82,2456 2816.07,2456 2818.32,2456 2820.57,2456 2822.82,2456 2825.07,2456 2827.32,2456 2829.57,2456 2831.82,2456 2834.07,2456 2836.31,2456 2838.56,2456 2840.81,2456 2843.06,2456 2845.31,2456 2847.56,2456 2849.81,2456 2852.06,2456 2854.31,2456 2856.56,2456 2858.8,2456 2861.05,2456 2863.3,2456 2865.55,2456 2867.8,2456 2870.05,2456 2872.3,2456 2874.55,2456 2876.8,2456 2879.05,2456 2881.29,2456 2883.54,2456 2885.79,2456 2888.04,2456 2890.29,2456 2892.54,2456 2894.79,2456 2897.04,2456 2899.29,2456 2901.54,2456 2903.78,2456 2906.03,2456 2908.28,2456 2910.53,2456 2912.78,2456 2915.03,2456 2917.28,2456 2919.53,2456 2921.78,2456 2924.03,2456 2926.27,2456 2928.52,2456 2930.77,2456 2933.02,2456 2935.27,2456 2937.52,2456 2939.77,2456 2942.02,2456 2944.27,2456 2946.52,2456 2948.77,2456 2951.01,2456 2953.26,2456 2955.51,2456 2957.76,2456 2960.01,2456 2962.26,2456 2964.51,2456 2966.76,2456 2969.01,2456 2971.26,2456 2973.5,2456 2975.75,2456 2978,2456 2980.25,2456 2982.5,2456 2984.75,2456 2987,2456 2989.25,2456 2991.5,2456 2993.74,2456 2995.99,2456 2998.24,2456 3000.49,2456 3002.74,2456 3004.99,2456 3007.24,2456 3009.49,2456 3011.74,2456 3013.99,2456 3016.23,2456 3018.48,2456 3020.73,2456 3022.98,2456 3025.23,2456 3027.48,2456 3029.73,2456 3031.98,2456 3034.23,2456 3036.48,2456 3038.72,2456 3040.97,2456 3043.22,2456 3045.47,2456 3047.72,2456 3049.97,2456 3052.22,2456 3054.47,2456 3056.72,2456 3058.97,2456 3061.22,2456 3063.46,2456 3065.71,2456 3067.96,2456 3070.21,2456 3072.46,2456 3074.71,2456 3076.96,2456 3079.21,2456 3081.46,2456 3083.71,2456 3085.95,2456 3088.2,2456 3090.45,2456 3092.7,2456 3094.95,2456 3097.2,2456 3099.45,2456 3101.7,2456 3103.95,2456 3106.2,2456 3108.44,2456 3110.69,2456 3112.94,2456 3115.19,2456 3117.44,2456 3119.69,2456 3121.94,2456 3124.19,2456 3126.44,2456 3128.69,2456 3130.93,2456 3133.18,2456 3135.43,2456 3137.68,2456 3139.93,2456 3142.18,2456 3144.43,2456 3146.68,2456 3148.93,2456 3151.18,2456 3153.42,2456 3155.67,2456 3157.92,2456 3160.17,2456 3162.42,2456 3164.67,2456 3166.92,2456 3169.17,2456 3171.42,2456 3173.67,2456 3175.91,2456 3178.16,2456 3180.41,2456 3182.66,2456 3184.91,2456 3187.16,2456 3189.41,2456 3191.66,2456 3193.91,2456 3196.16,2456 3198.4,2456 3200.65,2456 3202.9,2456 3205.15,2456 3207.4,2456 3209.65,2456 3211.9,2456 3214.15,2456 3216.4,2456 3218.65,2456 3220.89,2456 3223.14,2456 3225.39,2456 3227.64,2456 3229.89,2456 3232.14,2456 3234.39,2456 3236.64,2456 3238.89,2456 3241.14,2456 3243.38,2456 3245.63,2456 3247.88,2456 3250.13,2456 3252.38,2456 3254.63,2456 3256.88,2456 3259.13,2456 3261.38,2456 3263.63,2456 3265.87,2456 3268.12,2456 3270.37,2456 3272.62,2456 3274.87,2456 3277.12,2456 3279.37,2456 3281.62,2456 3283.87,2456 3286.11,2456 3288.36,2456 3290.61,2456 3292.86,2456 3295.11,2456 3297.36,2456 3299.61,2456 3301.86,2456 3304.11,2456 3306.36,2456 3308.6,2456 3310.85,2456 3313.1,2456 3315.35,2456 3317.6,2456 3319.85,2456 3322.1,2456 3324.35,2456 3326.6,2456 3328.85,2456 3331.09,2456 3333.34,2456 3335.59,2456 3337.84,2456 3340.09,2456 3342.34,2456 3344.59,2456 3346.84,2456 3349.09,2456 3351.34,2456 3353.58,2456 3355.83,2456 3358.08,2456 3360.33,2456 3362.58,2456 3364.83,2456 3367.08,2456 3369.33,2456 3371.58,2456 3373.83,2456 3376.07,2456 3378.32,2456 3380.57,2456 3382.82,2456 3385.07,2456 3387.32,2456 3389.57,2456 3391.82,2456 3394.07,2456 3396.32,2456 3398.56,2456 3400.81,2456 3403.06,2456 3405.31,2456 3407.56,2456 3409.81,2456 3412.06,2456 3414.31,2456 3416.56,2456 3418.81,2456 3421.05,2456 3423.3,2456 3425.55,2456 3427.8,2456 3430.05,2456 3432.3,2456 3434.55,2456 3436.8,2456 3439.05,2456 3441.3,2456 3443.54,2456 3445.79,2456 3448.04,2456 3450.29,2456 3452.54,2456 3454.79,2456 3457.04,2456 3459.29,2456 3461.54,2456 3463.79,2456 3466.03,2456 3468.28,2456 3470.53,2456 3472.78,2456 3475.03,2456 3477.28,2456 3479.53,2456 3481.78,2456 3484.03,2456 3486.28,2456 3488.53,2456 3490.77,2456 3493.02,2456 3495.27,2456 3497.52,2456 3499.77,2456 3502.02,2456 3504.27,2456 3506.52,2456 3508.77,2456 3511.02,2456 3513.26,2456 3515.51,2456 3517.76,2456 3520.01,2456 3522.26,2456 3524.51,2456 3526.76,2456 3529.01,2456 3531.26,2456 3533.51,2456 3535.75,2456 3538,2456 3540.25,2456 3542.5,2456 3544.75,2456 3547,2456 3549.25,2456 3551.5,2456 3553.75,2456 3555.99,2456 3558.24,2456 3560.49,2456 3562.74,2456 3564.99,2456 3567.24,2456 3569.49,2456 3571.74,2456 3573.99,2456 3576.24,2456 3578.48,2456 3580.73,2456 3582.98,2456 3585.23,2456 3587.48,2456 3589.73,2456 3591.98,2456 3594.23,2456 3596.48,2456 3598.73,2456 3600.97,2456 3603.22,2456 3605.47,2456 3607.72,2456 3609.97,2456 3612.22,2456 3614.47,2456 3616.72,2456 3618.97,2456 3621.22,2456 3623.47,2456 3625.71,2456 3627.96,2456 3630.21,2456 3632.46,2456 3634.71,2456 3636.96,2456 3639.21,2456 3641.46,2456 3643.71,2456 3645.96,2456 3648.2,2456 3650.45,2456 3652.7,2456 3654.95,2456 3657.2,2456 3659.45,2456 3661.7,2456 3663.95,2456 3666.2,2456 3668.45,2456 3670.69,2456 3672.94,2456 3675.19,2456 3677.44,2456 3679.69,2456 3681.94,2456 3684.19,2456 3686.44,2456 3688.69,2456 3690.94,2456 3693.18,2456 3695.43,2456 3697.68,2456 3699.93,2456 3702.18,2456 3704.43,2456 3706.68,2456 3708.93,2456 3711.18,2456 3713.43,2456 3715.67,2456 3717.92,2456 3720.17,2456 3722.42,2456 3724.67,2456 3726.92,2456 3729.17,2456 3731.42,2456 3733.67,2456 3735.92,2456 3738.16,2456 3740.41,2456 3742.66,2456 3744.91,2456 3747.16,2456 3749.41,2456 3751.66,2456 3753.91,2456 3756.16,2456 3758.41,2456 3760.65,2456 3762.9,2456 3765.15,2456 3767.4,2456 3769.65,2456 3771.9,2456 3774.15,2456 3776.4,2456 3778.65,2456 3780.9,2456 3783.14,2456 3785.39,2456 3787.64,2456 3789.89,2456 3792.14,2456 3794.39,2456 3796.64,2456 3798.89,2456 3801.14,2456 3803.39,2456 3805.63,2456 3807.88,2456 3810.13,2456 3812.38,2456 3814.63,2456 3816.88,2456 3819.13,2456 3821.38,2456 3823.63,2456 3825.88,2456 3828.12,2456 3830.37,2456 3832.62,2456 3834.87,2456 3837.12,2456 3839.37,2456 3841.62,2456 3843.87,2456 3846.12,2456 3848.36,2456 3850.61,2456 3852.86,2456 3855.11,2456 3857.36,2456 3859.61,2456 3861.86,2456 3864.11,2456 3866.36,2456 3868.61,2456 3870.85,2456 3873.1,2456 3875.35,2456 3877.6,2456 3879.85,2456 3882.1,2456 3884.35,2456 3886.6,2456 3888.85,2456 3891.1,2456 3893.34,2456 3895.59,2456 3897.84,2456 3900.09,2456 3902.34,2456 3904.59,2456 3906.84,2456 3909.09,2456 3911.34,2456 3913.59,2456 3915.83,2456 3918.08,2456 3920.33,2456 3922.58,2456 3924.83,2456 3927.08,2456 3929.33,2456 3931.58,2456 3933.83,2456 3936.08,2456 3938.32,2456 3940.57,2456 3942.82,2456 3945.07,2456 3947.32,2456 3949.57,2456 3951.82,2456 3954.07,2456 3956.32,2456 3958.57,2456 3960.81,2456 3963.06,2456 3965.31,2456 3967.56,2456 3969.81,2456 3972.06,2456 3974.31,2456 3976.56,2456 3978.81,2456 3981.06,2456 3983.3,2456 3985.55,2456 3987.8,2456 3990.05,2456 3992.3,2456 3994.55,2456 3996.8,2456 3999.05,2456 4001.3,2456 4003.55,2456 4005.79,2456 4008.04,2456 4010.29,2456 4012.54,2456 4014.79,2456 4017.04,2456 4019.29,2456 4021.54,2456 4023.79,2456 4026.04,2456 4028.28,2456 4030.53,2456 4032.78,2456 4035.03,2456 4037.28,2456 4039.53,2456 4041.78,2456 4044.03,2456 4046.28,2456 4048.53,2456 4050.78,2456 4053.02,2456 4055.27,2456 4057.52,2456 4059.77,2456 4062.02,2456 4064.27,2456 4066.52,2456 4068.77,2456 4071.02,2456 4073.27,2456 4075.51,2456 4077.76,2456 4080.01,2456 4082.26,2456 4084.51,2456 4086.76,2456 4089.01,2456 4091.26,2456 4093.51,2456 4095.76,2456 4098,2456 4100.25,2456 4102.5,2456 4104.75,2456 4107,2456 " />
</g>

<g fill="none" stroke="#ff0000" stroke-opacity="1" stroke-width="3" stroke-linecap="butt" stroke-linejoin="round" transform="matrix(0.507563,0,0,0.505753,-910.082,-103.191)"
font-family="Times New Roman" font-size="20" font-weight="400" font-style="normal" 
>
<polyline fill="none" vector-effect="none" points="1858,2456 1860.25,2456 1862.5,2456 1864.75,2456 1867,2456 1869.24,2456 1871.49,2456 1873.74,2456 1875.99,2456 1878.24,2456 1880.49,2456 1882.74,2456 1884.99,2456 1887.24,2456 1889.49,2456 1891.73,2456 1893.98,2456 1896.23,2456 1898.48,2456 1900.73,2456 1902.98,2456 1905.23,2456 1907.48,2456 1909.73,2456 1911.98,2456 1914.22,2456 1916.47,2456 1918.72,2456 1920.97,2456 1923.22,2456 1925.47,2456 1927.72,2456 1929.97,2456 1932.22,2456 1934.47,2456 1936.71,2456 1938.96,2456 1941.21,2456 1943.46,2456 1945.71,2456 1947.96,2456 1950.21,2456 1952.46,2456 1954.71,2456 1956.96,2456 1959.2,2456 1961.45,2456 1963.7,2456 1965.95,2456 1968.2,2456 1970.45,2456 1972.7,2456 1974.95,2456 1977.2,2456 1979.45,2456 1981.69,2456 1983.94,2456 1986.19,2456 1988.44,2456 1990.69,2456 1992.94,2456 1995.19,2456 1997.44,2456 1999.69,2456 2001.94,2456 2004.18,2456 2006.43,2456 2008.68,2456 2010.93,2456 2013.18,2456 2015.43,2456 2017.68,2456 2019.93,2456 2022.18,2456 2024.43,2456 2026.68,2456 2028.92,2456 2031.17,2456 2033.42,2456 2035.67,2456 2037.92,2456 2040.17,2456 2042.42,2456 2044.67,2456 2046.92,2456 2049.17,2456 2051.41,2456 2053.66,2456 2055.91,2456 2058.16,2456 2060.41,2456 2062.66,2456 2064.91,2456 2067.16,2456 2069.41,2456 2071.66,2456 2073.9,2456 2076.15,2456 2078.4,2456 2080.65,2456 2082.9,2456 2085.15,2456 2087.4,2456 2089.65,2456 2091.9,2456 2094.15,2456 2096.39,2456 2098.64,2456 2100.89,2456 2103.14,2456 2105.39,2456 2107.64,2456 2109.89,2456 2112.14,2456 2114.39,2456 2116.64,2456 2118.88,2456 2121.13,2456 2123.38,2456 2125.63,2456 2127.88,2456 2130.13,2456 2132.38,2456 2134.63,2456 2136.88,2456 2139.13,2456 2141.37,2456 2143.62,2456 2145.87,2456 2148.12,2456 2150.37,2456 2152.62,2456 2154.87,2456 2157.12,2456 2159.37,2456 2161.61,2456 2163.86,2456 2166.11,2456 2168.36,2456 2170.61,2456 2172.86,2456 2175.11,2452.84 2177.36,2444.28 2179.61,2431.65 2181.86,2416.32 2184.1,2399.63 2186.35,2382.95 2188.6,2367.62 2190.85,2354.99 2193.1,2346.42 2195.35,2343.27 2197.6,2343.27 2199.85,2343.27 2202.1,2343.27 2204.35,2343.27 2206.59,2343.27 2208.84,2343.27 2211.09,2343.27 2213.34,2343.27 2215.59,2343.27 2217.84,2343.27 2220.09,2342.2 2222.34,2339.21 2224.59,2334.64 2226.84,2328.84 2229.08,2322.13 2231.33,2314.86 2233.58,2307.36 2235.83,2299.98 2238.08,2293.05 2240.33,2286.9 2242.58,2281.27 2244.83,2275.63 2247.08,2269.99 2249.33,2264.36 2251.57,2258.72 2253.82,2253.08 2256.07,2247.45 2258.32,2241.81 2260.57,2236.17 2262.82,2230.54 2265.07,2224.9 2267.32,2219.26 2269.57,2213.63 2271.82,2207.99 2274.06,2202.35 2276.31,2196.72 2278.56,2191.08 2280.81,2185.44 2283.06,2179.81 2285.31,2174.17 2287.56,2168.53 2289.81,2162.9 2292.06,2157.26 2294.31,2151.62 2296.55,2145.99 2298.8,2140.35 2301.05,2134.71 2303.3,2129.08 2305.55,2123.44 2307.8,2117.8 2310.05,2111.66 2312.3,2104.73 2314.55,2097.34 2316.8,2089.85 2319.04,2082.58 2321.29,2075.87 2323.54,2070.06 2325.79,2065.5 2328.04,2062.51 2330.29,2061.44 2332.54,2061.44 2334.79,2061.44 2337.04,2061.44 2339.29,2061.44 2341.53,2061.44 2343.78,2061.44 2346.03,2061.44 2348.28,2061.44 2350.53,2061.44 2352.78,2061.44 2355.03,2060.67 2357.28,2058.46 2359.53,2054.95 2361.78,2050.26 2364.02,2044.53 2366.27,2037.9 2368.52,2030.51 2370.77,2022.48 2373.02,2013.96 2375.27,2005.07 2377.52,1992.27 2379.77,1972.97 2382.02,1948.8 2384.27,1921.38 2386.51,1892.34 2388.76,1863.3 2391.01,1835.88 2393.26,1811.72 2395.51,1792.42 2397.76,1779.61 2400.01,1771.49 2402.26,1764.91 2404.51,1759.5 2406.76,1754.9 2409.01,1750.72 2411.25,1746.6 2413.5,1742.17 2415.75,1737.04 2418,1730.86 2420.25,1723.24 2422.5,1711.66 2424.75,1694.83 2427,1674.29 2429.25,1651.55 2431.49,1628.13 2433.74,1605.55 2435.99,1585.34 2438.24,1569.03 2440.49,1558.12 2442.74,1554.15 2444.99,1554.15 2447.24,1554.15 2449.49,1554.15 2451.74,1554.15 2453.98,1554.15 2456.23,1554.15 2458.48,1554.15 2460.73,1554.15 2462.98,1554.15 2465.23,1554.15 2467.48,1549.41 2469.73,1536.56 2471.98,1517.62 2474.23,1494.62 2476.48,1469.6 2478.72,1444.57 2480.97,1421.57 2483.22,1402.63 2485.47,1389.78 2487.72,1385.05 2489.97,1385.05 2492.22,1385.05 2494.47,1385.05 2496.72,1385.05 2498.97,1385.05 2501.21,1385.05 2503.46,1385.05 2505.71,1385.05 2507.96,1385.05 2510.21,1385.05 2512.46,1382.57 2514.71,1375.73 2516.96,1365.43 2519.21,1352.58 2521.46,1338.08 2523.7,1322.82 2525.95,1307.71 2528.2,1293.66 2530.45,1281.56 2532.7,1272.32 2534.95,1265.33 2537.2,1259.24 2539.45,1253.83 2541.7,1248.87 2543.95,1244.13 2546.19,1239.4 2548.44,1234.44 2550.69,1229.03 2552.94,1222.94 2555.19,1215.95 2557.44,1207.38 2559.69,1197.01 2561.94,1185.29 2564.19,1172.66 2566.44,1159.58 2568.68,1146.51 2570.93,1133.88 2573.18,1122.16 2575.43,1111.79 2577.68,1103.22 2579.93,1096.23 2582.18,1090.14 2584.43,1084.73 2586.68,1079.77 2588.93,1075.04 2591.17,1070.3 2593.42,1065.34 2595.67,1059.93 2597.92,1053.84 2600.17,1046.85 2602.42,1038.28 2604.67,1027.91 2606.92,1016.19 2609.17,1003.56 2611.42,990.486 2613.66,977.409 2615.91,964.783 2618.16,953.059 2620.41,942.688 2622.66,934.12 2624.91,926.962 2627.16,920.442 2629.41,914.449 2631.66,908.868 2633.91,903.589 2636.15,898.497 2638.4,893.48 2640.65,888.426 2642.9,883.222 2645.15,877.754 2647.4,872.287 2649.65,867.082 2651.9,862.028 2654.15,857.012 2656.4,851.92 2658.64,846.64 2660.89,841.06 2663.14,835.067 2665.39,828.547 2667.64,821.388 2669.89,813.159 2672.14,803.652 2674.39,793.093 2676.64,781.707 2678.89,769.72 2681.13,757.357 2683.38,744.844 2685.63,732.406 2687.88,720.268 2690.13,708.657 2692.38,697.045 2694.63,684.908 2696.88,672.47 2699.13,659.956 2701.38,647.594 2703.62,635.606 2705.87,624.22 2708.12,613.661 2710.37,604.154 2712.62,595.925 2714.87,588.935 2717.12,582.848 2719.37,577.437 2721.62,572.477 2723.86,567.742 2726.11,563.007 2728.36,558.047 2730.61,552.636 2732.86,546.548 2735.11,539.559 2737.36,531.329 2739.61,521.822 2741.86,511.263 2744.11,499.877 2746.35,487.89 2748.6,475.527 2750.85,463.014 2753.1,450.576 2755.35,438.439 2757.6,426.827 2759.85,414.539 2762.1,400.673 2764.35,385.905 2766.6,370.912 2768.84,356.37 2771.09,342.955 2773.34,331.343 2775.59,322.212 2777.84,316.237 2780.09,314.095 2782.34,314.095 2784.59,314.095 2786.84,314.095 2789.09,314.095 2791.33,314.095 2793.58,314.095 2795.83,314.095 2798.08,314.095 2800.33,314.095 2802.58,314.095 2804.83,314.095 2807.08,314.095 2809.33,314.095 2811.58,314.095 2813.82,314.095 2816.07,314.095 2818.32,314.095 2820.57,314.095 2822.82,314.095 2825.07,314.095 2827.32,314.095 2829.57,314.095 2831.82,314.095 2834.07,314.095 2836.31,314.095 2838.56,314.095 2840.81,314.095 2843.06,314.095 2845.31,314.095 2847.56,314.095 2849.81,314.095 2852.06,314.095 2854.31,314.095 2856.56,314.095 2858.8,314.095 2861.05,314.095 2863.3,314.095 2865.55,314.095 2867.8,314.095 2870.05,314.095 2872.3,314.095 2874.55,314.095 2876.8,314.095 2879.05,314.095 2881.29,314.095 2883.54,314.095 2885.79,314.095 2888.04,314.095 2890.29,314.095 2892.54,314.095 2894.79,314.095 2897.04,314.095 2899.29,314.095 2901.54,314.095 2903.78,314.095 2906.03,314.095 2908.28,314.095 2910.53,314.095 2912.78,314.095 2915.03,314.095 2917.28,314.095 2919.53,314.095 2921.78,314.095 2924.03,314.095 2926.27,314.095 2928.52,314.095 2930.77,314.095 2933.02,314.095 2935.27,314.095 2937.52,314.095 2939.77,314.095 2942.02,314.095 2944.27,314.095 2946.52,314.095 2948.77,314.095 2951.01,314.095 2953.26,314.095 2955.51,314.095 2957.76,314.095 2960.01,314.095 2962.26,314.095 2964.51,314.095 2966.76,314.095 2969.01,314.095 2971.26,314.095 2973.5,314.095 2975.75,314.095 2978,314.095 2980.25,314.095 2982.5,314.095 2984.75,314.095 2987,314.095 2989.25,314.095 2991.5,314.095 2993.74,314.095 2995.99,314.095 2998.24,314.095 3000.49,314.095 3002.74,314.095 3004.99,314.095 3007.24,314.095 3009.49,314.095 3011.74,314.095 3013.99,314.095 3016.23,314.095 3018.48,314.095 3020.73,314.095 3022.98,314.095 3025.23,314.095 3027.48,314.095 3029.73,314.095 3031.98,314.095 3034.23,314.095 3036.48,314.095 3038.72,314.095 3040.97,314.095 3043.22,314.095 3045.47,314.095 3047.72,314.095 3049.97,314.095 3052.22,314.095 3054.47,314.095 3056.72,314.095 3058.97,314.095 3061.22,314.095 3063.46,314.095 3065.71,314.095 3067.96,314.095 3070.21,314.095 3072.46,314.095 3074.71,314.095 3076.96,314.095 3079.21,314.095 3081.46,314.095 3083.71,314.095 3085.95,314.095 3088.2,314.095 3090.45,314.095 3092.7,314.095 3094.95,314.095 3097.2,314.095 3099.45,314.095 3101.7,314.095 3103.95,314.095 3106.2,314.095 3108.44,314.095 3110.69,314.095 3112.94,314.095 3115.19,314.095 3117.44,314.095 3119.69,314.095 3121.94,314.095 3124.19,314.095 3126.44,314.095 3128.69,314.095 3130.93,314.095 3133.18,314.095 3135.43,314.095 3137.68,314.095 3139.93,314.095 3142.18,314.095 3144.43,314.095 3146.68,314.095 3148.93,314.095 3151.18,314.095 3153.42,314.095 3155.67,314.095 3157.92,314.095 3160.17,314.095 3162.42,314.095 3164.67,314.095 3166.92,314.095 3169.17,314.095 3171.42,314.095 3173.67,314.095 3175.91,314.095 3178.16,314.095 3180.41,314.095 3182.66,314.095 3184.91,314.095 3187.16,314.095 3189.41,314.095 3191.66,314.095 3193.91,314.095 3196.16,314.095 3198.4,314.095 3200.65,314.095 3202.9,314.095 3205.15,314.095 3207.4,314.095 3209.65,314.095 3211.9,314.095 3214.15,314.095 3216.4,314.095 3218.65,314.095 3220.89,314.095 3223.14,314.095 3225.39,314.095 3227.64,314.095 3229.89,314.095 3232.14,314.095 3234.39,314.095 3236.64,314.095 3238.89,314.095 3241.14,314.095 3243.38,314.095 3245.63,314.095 3247.88,314.095 3250.13,314.095 3252.38,314.095 3254.63,314.095 3256.88,314.095 3259.13,314.095 3261.38,314.095 3263.63,314.095 3265.87,314.095 3268.12,314.095 3270.37,314.095 3272.62,314.095 3274.87,314.095 3277.12,314.095 3279.37,314.095 3281.62,314.095 3283.87,314.095 3286.11,314.095 3288.36,314.095 3290.61,314.095 3292.86,314.095 3295.11,314.095 3297.36,314.095 3299.61,314.095 3301.86,314.095 3304.11,314.095 3306.36,314.095 3308.6,314.095 3310.85,314.095 3313.1,314.095 3315.35,314.095 3317.6,314.095 3319.85,314.095 3322.1,314.095 3324.35,314.095 3326.6,314.095 3328.85,314.095 3331.09,314.095 3333.34,314.095 3335.59,314.095 3337.84,314.095 3340.09,314.095 3342.34,314.095 3344.59,314.095 3346.84,314.095 3349.09,314.095 3351.34,314.095 3353.58,314.095 3355.83,314.095 3358.08,314.095 3360.33,314.095 3362.58,314.095 3364.83,314.095 3367.08,314.095 3369.33,314.095 3371.58,314.095 3373.83,314.095 3376.07,314.095 3378.32,314.095 3380.57,314.095 3382.82,314.095 3385.07,314.095 3387.32,314.095 3389.57,314.095 3391.82,314.095 3394.07,314.095 3396.32,314.095 3398.56,314.095 3400.81,314.095 3403.06,314.095 3405.31,314.095 3407.56,314.095 3409.81,314.095 3412.06,314.095 3414.31,314.095 3416.56,314.095 3418.81,314.095 3421.05,314.095 3423.3,314.095 3425.55,314.095 3427.8,314.095 3430.05,314.095 3432.3,314.095 3434.55,314.095 3436.8,314.095 3439.05,314.095 3441.3,314.095 3443.54,314.095 3445.79,314.095 3448.04,314.095 3450.29,314.095 3452.54,314.095 3454.79,314.095 3457.04,314.095 3459.29,314.095 3461.54,314.095 3463.79,314.095 3466.03,314.095 3468.28,314.095 3470.53,314.095 3472.78,314.095 3475.03,314.095 3477.28,314.095 3479.53,314.095 3481.78,314.095 3484.03,314.095 3486.28,314.095 3488.53,314.095 3490.77,314.095 3493.02,314.095 3495.27,314.095 3497.52,314.095 3499.77,314.095 3502.02,314.095 3504.27,314.095 3506.52,314.095 3508.77,314.095 3511.02,314.095 3513.26,314.095 3515.51,314.095 3517.76,314.095 3520.01,314.095 3522.26,314.095 3524.51,314.095 3526.76,314.095 3529.01,314.095 3531.26,314.095 3533.51,314.095 3535.75,314.095 3538,314.095 3540.25,314.095 3542.5,314.095 3544.75,314.095 3547,314.095 3549.25,314.095 3551.5,314.095 3553.75,314.095 3555.99,314.095 3558.24,314.095 3560.49,314.095 3562.74,314.095 3564.99,314.095 3567.24,314.095 3569.49,314.095 3571.74,314.095 3573.99,314.095 3576.24,314.095 3578.48,314.095 3580.73,314.095 3582.98,314.095 3585.23,314.095 3587.48,314.095 3589.73,314.095 3591.98,314.095 3594.23,314.095 3596.48,314.095 3598.73,314.095 3600.97,314.095 3603.22,314.095 3605.47,314.095 3607.72,314.095 3609.97,314.095 3612.22,314.095 3614.47,314.095 3616.72,314.095 3618.97,314.095 3621.22,314.095 3623.47,314.095 3625.71,314.095 3627.96,314.095 3630.21,314.095 3632.46,314.095 3634.71,314.095 3636.96,314.095 3639.21,314.095 3641.46,314.095 3643.71,314.095 3645.96,314.095 3648.2,314.095 3650.45,314.095 3652.7,314.095 3654.95,314.095 3657.2,314.095 3659.45,314.095 3661.7,314.095 3663.95,314.095 3666.2,314.095 3668.45,314.095 3670.69,314.095 3672.94,314.095 3675.19,314.095 3677.44,314.095 3679.69,314.095 3681.94,314.095 3684.19,314.095 3686.44,314.095 3688.69,314.095 3690.94,314.095 3693.18,314.095 3695.43,314.095 3697.68,314.095 3699.93,314.095 3702.18,314.095 3704.43,314.095 3706.68,314.095 3708.93,314.095 3711.18,314.095 3713.43,314.095 3715.67,314.095 3717.92,314.095 3720.17,314.095 3722.42,314.095 3724.67,314.095 3726.92,314.095 3729.17,314.095 3731.42,314.095 3733.67,314.095 3735.92,314.095 3738.16,314.095 3740.41,314.095 3742.66,314.095 3744.91,314.095 3747.16,314.095 3749.41,314.095 3751.66,314.095 3753.91,314.095 3756.16,314.095 3758.41,314.095 3760.65,314.095 3762.9,314.095 3765.15,314.095 3767.4,314.095 3769.65,314.095 3771.9,314.095 3774.15,314.095 3776.4,314.095 3778.65,314.095 3780.9,314.095 3783.14,314.095 3785.39,314.095 3787.64,314.095 3789.89,314.095 3792.14,314.095 3794.39,314.095 3796.64,314.095 3798.89,314.095 3801.14,314.095 3803.39,314.095 3805.63,314.095 3807.88,314.095 3810.13,314.095 3812.38,314.095 3814.63,314.095 3816.88,314.095 3819.13,314.095 3821.38,314.095 3823.63,314.095 3825.88,314.095 3828.12,314.095 3830.37,314.095 3832.62,314.095 3834.87,314.095 3837.12,314.095 3839.37,314.095 3841.62,314.095 3843.87,314.095 3846.12,314.095 3848.36,314.095 3850.61,314.095 3852.86,314.095 3855.11,314.095 3857.36,314.095 3859.61,314.095 3861.86,314.095 3864.11,314.095 3866.36,314.095 3868.61,314.095 3870.85,314.095 3873.1,314.095 3875.35,314.095 3877.6,314.095 3879.85,314.095 3882.1,314.095 3884.35,314.095 3886.6,314.095 3888.85,314.095 3891.1,314.095 3893.34,314.095 3895.59,314.095 3897.84,314.095 3900.09,314.095 3902.34,314.095 3904.59,314.095 3906.84,314.095 3909.09,314.095 3911.34,314.095 3913.59,314.095 3915.83,314.095 3918.08,314.095 3920.33,314.095 3922.58,314.095 3924.83,314.095 3927.08,314.095 3929.33,314.095 3931.58,314.095 3933.83,314.095 3936.08,314.095 3938.32,314.095 3940.57,314.095 3942.82,314.095 3945.07,314.095 3947.32,314.095 3949.57,314.095 3951.82,314.095 3954.07,314.095 3956.32,314.095 3958.57,314.095 3960.81,314.095 3963.06,314.095 3965.31,314.095 3967.56,314.095 3969.81,314.095 3972.06,314.095 3974.31,314.095 3976.56,314.095 3978.81,314.095 3981.06,314.095 3983.3,314.095 3985.55,314.095 3987.8,314.095 3990.05,314.095 3992.3,314.095 3994.55,314.095 3996.8,314.095 3999.05,314.095 4001.3,314.095 4003.55,314.095 4005.79,314.095 4008.04,314.095 4010.29,314.095 4012.54,314.095 4014.79,314.095 4017.04,314.095 4019.29,314.095 4021.54,314.095 4023.79,314.095 4026.04,314.095 4028.28,314.095 4030.53,314.095 4032.78,314.095 4035.03,314.095 4037.28,314.095 4039.53,314.095 4041.78,314.095 4044.03,314.095 4046.28,314.095 4048.53,314.095 4050.78,314.095 4053.02,314.095 4055.27,314.095 4057.52,314.095 4059.77,314.095 4062.02,314.095 4064.27,314.095 4066.52,314.095 4068.77,314.095 4071.02,314.095 4073.27,314.095 4075.51,314.095 4077.76,314.095 4080.01,314.095 4082.26,314.095 4084.51,314.095 4086.76,314.095 4089.01,314.095 4091.26,314.095 4093.51,314.095 4095.76,314.095 4098,314.095 4100.25,314.095 4102.5,314.095 4104.75,314.095 4107,314.095 " />
</g>

<g fill="#000000" fill-opacity="1" stroke="#000000" stroke-opacity="1" stroke-width="4" stroke-linecap="butt" stroke-linejoin="miter" stroke-miterlimit="2" transform="matrix(0.507563,0,0,0.505753,-910.082,-103.191)"
font-family="Times New Roman" font-size="20" font-weight="400" font-style="normal" 
>
<polyline fill="none" vector-effect="none" points="2226.51,2290.45 2240.65,2304.59 " />
<polyline fill="none" vector-effect="none" points="2226.51,2304.59 2240.65,2290.45 " />
</g>

<g fill="#212121" fill-opacity="1" stroke="#212121" stroke-opacity="1" stroke-width="1" stroke-linecap="square" stroke-linejoin="bevel" transform="matrix(0.507563,0,0,0.505753,204.821,1056.26)"
font-family="Times New Roman" font-size="20" font-weight="400" font-style="normal" 
>
<text fill="#212121" fill-opacity="1" stroke="none" xml:space="preserve" x="0" y="0" font-family="Times New Roman" font-size="20" font-weight="400" font-style="normal" 
 >EER</text>
</g>

<g fill="#ffffff" fill-opacity="1" stroke="none" transform="matrix(5.07563e-05,0,0,5.05753e-05,-910.082,-103.191)"
font-family="Times New Roman" font-size="20" font-weight="400" font-style="normal" 
>
<path vector-effect="none" fill-rule="evenodd" d="M3.978e+07,2.23e+06 L3.978e+07,2.7e+06 L4.091e+07,2.7e+06 L4.091e+07,2.23e+06 L3.978e+07,2.23e+06"/>
</g>

<g fill="#1171be" fill-opacity="1" stroke="#1171be" stroke-opacity="1" stroke-width="3" stroke-linecap="butt" stroke-linejoin="round" transform="matrix(0.507563,0,0,0.505753,-910.082,-103.191)"
font-family="Times New Roman" font-size="20" font-weight="400" font-style="normal" 
>
<polyline fill="none" vector-effect="none" points="3983.97,236.07 4043.71,236.07 " />
</g>

<g fill="#ff0000" fill-opacity="1" stroke="#ff0000" stroke-opacity="1" stroke-width="3" stroke-linecap="butt" stroke-linejoin="round" transform="matrix(0.507563,0,0,0.505753,-910.082,-103.191)"
font-family="Times New Roman" font-size="20" font-weight="400" font-style="normal" 
>
<polyline fill="none" vector-effect="none" points="3983.97,256.93 4043.71,256.93 " />
</g>

<g fill="#212121" fill-opacity="1" stroke="#212121" stroke-opacity="1" stroke-width="1" stroke-linecap="square" stroke-linejoin="bevel" transform="matrix(0.507563,0,0,0.505753,1144.63,19.4894)"
font-family="Times New Roman" font-size="18" font-weight="400" font-style="normal" 
>
<text fill="#212121" fill-opacity="1" stroke="none" xml:space="preserve" x="0" y="0" font-family="Times New Roman" font-size="18" font-weight="400" font-style="normal" 
 >FAR</text>
</g>

<g fill="#212121" fill-opacity="1" stroke="#212121" stroke-opacity="1" stroke-width="1" stroke-linecap="square" stroke-linejoin="bevel" transform="matrix(0.507563,0,0,0.505753,1144.63,30.0399)"
font-family="Times New Roman" font-size="18" font-weight="400" font-style="normal" 
>
<text fill="#212121" fill-opacity="1" stroke="none" xml:space="preserve" x="0" y="0" font-family="Times New Roman" font-size="18" font-weight="400" font-style="normal" 
 >FRR</text>
</g>

<g fill="none" stroke="#212121" stroke-opacity="1" stroke-width="1" stroke-linecap="butt" stroke-linejoin="miter" stroke-miterlimit="2" transform="matrix(0.507563,0,0,0.505753,-910.082,-103.191)"
font-family="Times New Roman" font-size="18" font-weight="400" font-style="normal" 
>
<path vector-effect="none" fill-rule="evenodd" d="M3978,270 L3978,223 L4091,223 L4091,270 L3978,270"/>
</g>
</g>
</svg>
