<?xml version="1.0" encoding="UTF-8" standalone="no"?>
<svg width="420.158mm" height="414.867mm"
 viewBox="0 0 1191 1176"
 xmlns="http://www.w3.org/2000/svg" xmlns:xlink="http://www.w3.org/1999/xlink"  version="1.2" baseProfile="tiny">
<title>Qt SVG Document</title>
<desc>MATLAB, The MathWorks, Inc. Version 25.1.0.2973910 R2025a Update 1</desc>
<defs>
</defs>
<g fill="none" stroke="black" stroke-width="1" fill-rule="evenodd" stroke-linecap="square" stroke-linejoin="bevel" >

<g fill="#ffffff" fill-opacity="1" stroke="none" transform="matrix(0.509987,0,0,0.507024,-913.417,-99.6513)"
font-family="MS Shell Dlg 2" font-size="13.5" font-weight="400" font-style="normal" 
>
<path vector-effect="none" fill-rule="evenodd" d="M1791,196 L4125,196 L4125,2516 L1791,2516 L1791,196"/>
</g>

<g fill="#ffffff" fill-opacity="1" stroke="none" transform="matrix(5.09987e-05,0,0,5.07024e-05,-913.417,-99.6513)"
font-family="MS Shell Dlg 2" font-size="13.5" font-weight="400" font-style="normal" 
>
<path vector-effect="none" fill-rule="evenodd" d="M1.861e+07,2.07e+06 L1.861e+07,2.454e+07 L4.108e+07,2.454e+07 L4.108e+07,2.07e+06 L1.861e+07,2.07e+06"/>
</g>

<g fill="#212121" fill-opacity="1" stroke="#212121" stroke-opacity="1" stroke-width="1" stroke-linecap="square" stroke-linejoin="bevel" transform="matrix(0.509987,0,0,0.507024,541.576,1171.96)"
font-family="Times New Roman" font-size="24" font-weight="400" font-style="normal" 
>
<text fill="#212121" fill-opacity="1" stroke="none" xml:space="preserve" x="0" y="0" font-family="Times New Roman" font-size="24" font-weight="400" font-style="normal" 
 >False Acceptance Rate (%)</text>
</g>

<g fill="#212121" fill-opacity="1" stroke="#212121" stroke-opacity="1" stroke-width="1" stroke-linecap="square" stroke-linejoin="round" transform="matrix(0.509987,0,0,0.507024,-913.417,-99.6513)"
font-family="Times New Roman" font-size="24" font-weight="400" font-style="normal" 
>
<polyline fill="none" vector-effect="none" points="1861,2454 4108,2454 " />
<polyline fill="none" vector-effect="none" points="1861,207 4108,207 " />
<polyline fill="none" vector-effect="none" points="1861,2454 1861,2431.53 " />
<polyline fill="none" vector-effect="none" points="1861,229.47 1861,207 " />
<polyline fill="none" vector-effect="none" points="2085.7,2454 2085.7,2431.53 " />
<polyline fill="none" vector-effect="none" points="2085.7,229.47 2085.7,207 " />
<polyline fill="none" vector-effect="none" points="2310.4,2454 2310.4,2431.53 " />
<polyline fill="none" vector-effect="none" points="2310.4,229.47 2310.4,207 " />
<polyline fill="none" vector-effect="none" points="2535.1,2454 2535.1,2431.53 " />
<polyline fill="none" vector-effect="none" points="2535.1,229.47 2535.1,207 " />
<polyline fill="none" vector-effect="none" points="2759.8,2454 2759.8,2431.53 " />
<polyline fill="none" vector-effect="none" points="2759.8,229.47 2759.8,207 " />
<polyline fill="none" vector-effect="none" points="2984.5,2454 2984.5,2431.53 " />
<polyline fill="none" vector-effect="none" points="2984.5,229.47 2984.5,207 " />
<polyline fill="none" vector-effect="none" points="3209.2,2454 3209.2,2431.53 " />
<polyline fill="none" vector-effect="none" points="3209.2,229.47 3209.2,207 " />
<polyline fill="none" vector-effect="none" points="3433.9,2454 3433.9,2431.53 " />
<polyline fill="none" vector-effect="none" points="3433.9,229.47 3433.9,207 " />
<polyline fill="none" vector-effect="none" points="3658.6,2454 3658.6,2431.53 " />
<polyline fill="none" vector-effect="none" points="3658.6,229.47 3658.6,207 " />
<polyline fill="none" vector-effect="none" points="3883.3,2454 3883.3,2431.53 " />
<polyline fill="none" vector-effect="none" points="3883.3,229.47 3883.3,207 " />
<polyline fill="none" vector-effect="none" points="4108,2454 4108,2431.53 " />
<polyline fill="none" vector-effect="none" points="4108,229.47 4108,207 " />
</g>

<g fill="#212121" fill-opacity="1" stroke="#212121" stroke-opacity="1" stroke-width="1" stroke-linecap="square" stroke-linejoin="bevel" transform="matrix(0.509987,0,0,0.507024,33.1192,1157.77)"
font-family="Times New Roman" font-size="20" font-weight="400" font-style="normal" 
>
<text fill="#212121" fill-opacity="1" stroke="none" xml:space="preserve" x="0" y="0" font-family="Times New Roman" font-size="20" font-weight="400" font-style="normal" 
 >0</text>
</g>

<g fill="#212121" fill-opacity="1" stroke="#212121" stroke-opacity="1" stroke-width="1" stroke-linecap="square" stroke-linejoin="bevel" transform="matrix(0.509987,0,0,0.507024,145.163,1157.77)"
font-family="Times New Roman" font-size="20" font-weight="400" font-style="normal" 
>
<text fill="#212121" fill-opacity="1" stroke="none" xml:space="preserve" x="0" y="0" font-family="Times New Roman" font-size="20" font-weight="400" font-style="normal" 
 >10</text>
</g>

<g fill="#212121" fill-opacity="1" stroke="#212121" stroke-opacity="1" stroke-width="1" stroke-linecap="square" stroke-linejoin="bevel" transform="matrix(0.509987,0,0,0.507024,259.757,1157.77)"
font-family="Times New Roman" font-size="20" font-weight="400" font-style="normal" 
>
<text fill="#212121" fill-opacity="1" stroke="none" xml:space="preserve" x="0" y="0" font-family="Times New Roman" font-size="20" font-weight="400" font-style="normal" 
 >20</text>
</g>

<g fill="#212121" fill-opacity="1" stroke="#212121" stroke-opacity="1" stroke-width="1" stroke-linecap="square" stroke-linejoin="bevel" transform="matrix(0.509987,0,0,0.507024,374.352,1157.77)"
font-family="Times New Roman" font-size="20" font-weight="400" font-style="normal" 
>
<text fill="#212121" fill-opacity="1" stroke="none" xml:space="preserve" x="0" y="0" font-family="Times New Roman" font-size="20" font-weight="400" font-style="normal" 
 >30</text>
</g>

<g fill="#212121" fill-opacity="1" stroke="#212121" stroke-opacity="1" stroke-width="1" stroke-linecap="square" stroke-linejoin="bevel" transform="matrix(0.509987,0,0,0.507024,488.946,1157.77)"
font-family="Times New Roman" font-size="20" font-weight="400" font-style="normal" 
>
<text fill="#212121" fill-opacity="1" stroke="none" xml:space="preserve" x="0" y="0" font-family="Times New Roman" font-size="20" font-weight="400" font-style="normal" 
 >40</text>
</g>

<g fill="#212121" fill-opacity="1" stroke="#212121" stroke-opacity="1" stroke-width="1" stroke-linecap="square" stroke-linejoin="bevel" transform="matrix(0.509987,0,0,0.507024,603.54,1157.77)"
font-family="Times New Roman" font-size="20" font-weight="400" font-style="normal" 
>
<text fill="#212121" fill-opacity="1" stroke="none" xml:space="preserve" x="0" y="0" font-family="Times New Roman" font-size="20" font-weight="400" font-style="normal" 
 >50</text>
</g>

<g fill="#212121" fill-opacity="1" stroke="#212121" stroke-opacity="1" stroke-width="1" stroke-linecap="square" stroke-linejoin="bevel" transform="matrix(0.509987,0,0,0.507024,718.134,1157.77)"
font-family="Times New Roman" font-size="20" font-weight="400" font-style="normal" 
>
<text fill="#212121" fill-opacity="1" stroke="none" xml:space="preserve" x="0" y="0" font-family="Times New Roman" font-size="20" font-weight="400" font-style="normal" 
 >60</text>
</g>

<g fill="#212121" fill-opacity="1" stroke="#212121" stroke-opacity="1" stroke-width="1" stroke-linecap="square" stroke-linejoin="bevel" transform="matrix(0.509987,0,0,0.507024,832.728,1157.77)"
font-family="Times New Roman" font-size="20" font-weight="400" font-style="normal" 
>
<text fill="#212121" fill-opacity="1" stroke="none" xml:space="preserve" x="0" y="0" font-family="Times New Roman" font-size="20" font-weight="400" font-style="normal" 
 >70</text>
</g>

<g fill="#212121" fill-opacity="1" stroke="#212121" stroke-opacity="1" stroke-width="1" stroke-linecap="square" stroke-linejoin="bevel" transform="matrix(0.509987,0,0,0.507024,947.322,1157.77)"
font-family="Times New Roman" font-size="20" font-weight="400" font-style="normal" 
>
<text fill="#212121" fill-opacity="1" stroke="none" xml:space="preserve" x="0" y="0" font-family="Times New Roman" font-size="20" font-weight="400" font-style="normal" 
 >80</text>
</g>

<g fill="#212121" fill-opacity="1" stroke="#212121" stroke-opacity="1" stroke-width="1" stroke-linecap="square" stroke-linejoin="bevel" transform="matrix(0.509987,0,0,0.507024,1061.92,1157.77)"
font-family="Times New Roman" font-size="20" font-weight="400" font-style="normal" 
>
<text fill="#212121" fill-opacity="1" stroke="none" xml:space="preserve" x="0" y="0" font-family="Times New Roman" font-size="20" font-weight="400" font-style="normal" 
 >90</text>
</g>

<g fill="#212121" fill-opacity="1" stroke="#212121" stroke-opacity="1" stroke-width="1" stroke-linecap="square" stroke-linejoin="bevel" transform="matrix(0.509987,0,0,0.507024,1173.96,1157.77)"
font-family="Times New Roman" font-size="20" font-weight="400" font-style="normal" 
>
<text fill="#212121" fill-opacity="1" stroke="none" xml:space="preserve" x="0" y="0" font-family="Times New Roman" font-size="20" font-weight="400" font-style="normal" 
 >100</text>
</g>

<g fill="#212121" fill-opacity="1" stroke="#212121" stroke-opacity="1" stroke-width="1" stroke-linecap="square" stroke-linejoin="bevel" transform="matrix(0,-0.507024,0.509987,0,10.1698,636.801)"
font-family="Times New Roman" font-size="24" font-weight="400" font-style="normal" 
>
<text fill="#212121" fill-opacity="1" stroke="none" xml:space="preserve" x="0" y="0" font-family="Times New Roman" font-size="24" font-weight="400" font-style="normal" 
 >False Rejection Rate (%)</text>
</g>

<g fill="#212121" fill-opacity="1" stroke="#212121" stroke-opacity="1" stroke-width="1" stroke-linecap="square" stroke-linejoin="round" transform="matrix(0.509987,0,0,0.507024,-913.417,-99.6513)"
font-family="Times New Roman" font-size="24" font-weight="400" font-style="normal" 
>
<polyline fill="none" vector-effect="none" points="1861,2454 1861,207 " />
<polyline fill="none" vector-effect="none" points="4108,2454 4108,207 " />
<polyline fill="none" vector-effect="none" points="1861,2454 1883.47,2454 " />
<polyline fill="none" vector-effect="none" points="4085.53,2454 4108,2454 " />
<polyline fill="none" vector-effect="none" points="1861,2229.3 1883.47,2229.3 " />
<polyline fill="none" vector-effect="none" points="4085.53,2229.3 4108,2229.3 " />
<polyline fill="none" vector-effect="none" points="1861,2004.6 1883.47,2004.6 " />
<polyline fill="none" vector-effect="none" points="4085.53,2004.6 4108,2004.6 " />
<polyline fill="none" vector-effect="none" points="1861,1779.9 1883.47,1779.9 " />
<polyline fill="none" vector-effect="none" points="4085.53,1779.9 4108,1779.9 " />
<polyline fill="none" vector-effect="none" points="1861,1555.2 1883.47,1555.2 " />
<polyline fill="none" vector-effect="none" points="4085.53,1555.2 4108,1555.2 " />
<polyline fill="none" vector-effect="none" points="1861,1330.5 1883.47,1330.5 " />
<polyline fill="none" vector-effect="none" points="4085.53,1330.5 4108,1330.5 " />
<polyline fill="none" vector-effect="none" points="1861,1105.8 1883.47,1105.8 " />
<polyline fill="none" vector-effect="none" points="4085.53,1105.8 4108,1105.8 " />
<polyline fill="none" vector-effect="none" points="1861,881.1 1883.47,881.1 " />
<polyline fill="none" vector-effect="none" points="4085.53,881.1 4108,881.1 " />
<polyline fill="none" vector-effect="none" points="1861,656.4 1883.47,656.4 " />
<polyline fill="none" vector-effect="none" points="4085.53,656.4 4108,656.4 " />
<polyline fill="none" vector-effect="none" points="1861,431.7 1883.47,431.7 " />
<polyline fill="none" vector-effect="none" points="4085.53,431.7 4108,431.7 " />
<polyline fill="none" vector-effect="none" points="1861,207 1883.47,207 " />
<polyline fill="none" vector-effect="none" points="4085.53,207 4108,207 " />
</g>

<g fill="#212121" fill-opacity="1" stroke="#212121" stroke-opacity="1" stroke-width="1" stroke-linecap="square" stroke-linejoin="bevel" transform="matrix(0.509987,0,0,0.507024,26.4894,1147.88)"
font-family="Times New Roman" font-size="20" font-weight="400" font-style="normal" 
>
<text fill="#212121" fill-opacity="1" stroke="none" xml:space="preserve" x="0" y="0" font-family="Times New Roman" font-size="20" font-weight="400" font-style="normal" 
 >0</text>
</g>

<g fill="#212121" fill-opacity="1" stroke="#212121" stroke-opacity="1" stroke-width="1" stroke-linecap="square" stroke-linejoin="bevel" transform="matrix(0.509987,0,0,0.507024,21.3895,1033.95)"
font-family="Times New Roman" font-size="20" font-weight="400" font-style="normal" 
>
<text fill="#212121" fill-opacity="1" stroke="none" xml:space="preserve" x="0" y="0" font-family="Times New Roman" font-size="20" font-weight="400" font-style="normal" 
 >10</text>
</g>

<g fill="#212121" fill-opacity="1" stroke="#212121" stroke-opacity="1" stroke-width="1" stroke-linecap="square" stroke-linejoin="bevel" transform="matrix(0.509987,0,0,0.507024,21.3895,920.025)"
font-family="Times New Roman" font-size="20" font-weight="400" font-style="normal" 
>
<text fill="#212121" fill-opacity="1" stroke="none" xml:space="preserve" x="0" y="0" font-family="Times New Roman" font-size="20" font-weight="400" font-style="normal" 
 >20</text>
</g>

<g fill="#212121" fill-opacity="1" stroke="#212121" stroke-opacity="1" stroke-width="1" stroke-linecap="square" stroke-linejoin="bevel" transform="matrix(0.509987,0,0,0.507024,21.3895,806.096)"
font-family="Times New Roman" font-size="20" font-weight="400" font-style="normal" 
>
<text fill="#212121" fill-opacity="1" stroke="none" xml:space="preserve" x="0" y="0" font-family="Times New Roman" font-size="20" font-weight="400" font-style="normal" 
 >30</text>
</g>

<g fill="#212121" fill-opacity="1" stroke="#212121" stroke-opacity="1" stroke-width="1" stroke-linecap="square" stroke-linejoin="bevel" transform="matrix(0.509987,0,0,0.507024,21.3895,692.168)"
font-family="Times New Roman" font-size="20" font-weight="400" font-style="normal" 
>
<text fill="#212121" fill-opacity="1" stroke="none" xml:space="preserve" x="0" y="0" font-family="Times New Roman" font-size="20" font-weight="400" font-style="normal" 
 >40</text>
</g>

<g fill="#212121" fill-opacity="1" stroke="#212121" stroke-opacity="1" stroke-width="1" stroke-linecap="square" stroke-linejoin="bevel" transform="matrix(0.509987,0,0,0.507024,21.3895,578.24)"
font-family="Times New Roman" font-size="20" font-weight="400" font-style="normal" 
>
<text fill="#212121" fill-opacity="1" stroke="none" xml:space="preserve" x="0" y="0" font-family="Times New Roman" font-size="20" font-weight="400" font-style="normal" 
 >50</text>
</g>

<g fill="#212121" fill-opacity="1" stroke="#212121" stroke-opacity="1" stroke-width="1" stroke-linecap="square" stroke-linejoin="bevel" transform="matrix(0.509987,0,0,0.507024,21.3895,464.312)"
font-family="Times New Roman" font-size="20" font-weight="400" font-style="normal" 
>
<text fill="#212121" fill-opacity="1" stroke="none" xml:space="preserve" x="0" y="0" font-family="Times New Roman" font-size="20" font-weight="400" font-style="normal" 
 >60</text>
</g>

<g fill="#212121" fill-opacity="1" stroke="#212121" stroke-opacity="1" stroke-width="1" stroke-linecap="square" stroke-linejoin="bevel" transform="matrix(0.509987,0,0,0.507024,21.3895,350.383)"
font-family="Times New Roman" font-size="20" font-weight="400" font-style="normal" 
>
<text fill="#212121" fill-opacity="1" stroke="none" xml:space="preserve" x="0" y="0" font-family="Times New Roman" font-size="20" font-weight="400" font-style="normal" 
 >70</text>
</g>

<g fill="#212121" fill-opacity="1" stroke="#212121" stroke-opacity="1" stroke-width="1" stroke-linecap="square" stroke-linejoin="bevel" transform="matrix(0.509987,0,0,0.507024,21.3895,236.455)"
font-family="Times New Roman" font-size="20" font-weight="400" font-style="normal" 
>
<text fill="#212121" fill-opacity="1" stroke="none" xml:space="preserve" x="0" y="0" font-family="Times New Roman" font-size="20" font-weight="400" font-style="normal" 
 >80</text>
</g>

<g fill="#212121" fill-opacity="1" stroke="#212121" stroke-opacity="1" stroke-width="1" stroke-linecap="square" stroke-linejoin="bevel" transform="matrix(0.509987,0,0,0.507024,21.3895,122.527)"
font-family="Times New Roman" font-size="20" font-weight="400" font-style="normal" 
>
<text fill="#212121" fill-opacity="1" stroke="none" xml:space="preserve" x="0" y="0" font-family="Times New Roman" font-size="20" font-weight="400" font-style="normal" 
 >90</text>
</g>

<g fill="#212121" fill-opacity="1" stroke="#212121" stroke-opacity="1" stroke-width="1" stroke-linecap="square" stroke-linejoin="bevel" transform="matrix(0.509987,0,0,0.507024,16.2896,8.59834)"
font-family="Times New Roman" font-size="20" font-weight="400" font-style="normal" 
>
<text fill="#212121" fill-opacity="1" stroke="none" xml:space="preserve" x="0" y="0" font-family="Times New Roman" font-size="20" font-weight="400" font-style="normal" 
 >100</text>
</g>

<g fill="none" stroke="#1171be" stroke-opacity="1" stroke-width="3" stroke-linecap="butt" stroke-linejoin="round" transform="matrix(0.509987,0,0,0.507024,-913.417,-99.6513)"
font-family="Times New Roman" font-size="20" font-weight="400" font-style="normal" 
>
<polyline fill="none" vector-effect="none" points="4108,2454 4108,2454 4108,2454 4108,2454 4108,2454 4108,2454 4108,2454 4108,2454 4096.36,2454 4073.07,2454 4049.79,2454 3851.87,2454 3560.8,2454 3223.17,2454 2792.4,2454 2408.2,2335.74 2198.63,2335.74 1977.42,2276.61 1907.57,2217.47 1884.29,2158.34 1884.29,2099.21 1861,2040.08 1861,2040.08 1861,1980.95 1861,1744.42 1861,1685.29 1861,1507.89 1861,1507.89 1861,1330.5 1861,1330.5 1861,1212.24 1861,1153.11 1861,1034.84 1861,975.711 1861,857.447 1861,798.316 1861,739.184 1861,620.921 1861,502.658 1861,443.526 1861,325.263 1861,207 1861,207 1861,207 1861,207 1861,207 1861,207 1861,207 1861,207 1861,207 1861,207 1861,207 1861,207 1861,207 1861,207 1861,207 1861,207 1861,207 1861,207 1861,207 1861,207 1861,207 1861,207 1861,207 1861,207 1861,207 1861,207 1861,207 1861,207 1861,207 1861,207 1861,207 1861,207 1861,207 1861,207 1861,207 1861,207 1861,207 1861,207 1861,207 1861,207 1861,207 1861,207 1861,207 1861,207 1861,207 1861,207 1861,207 1861,207 1861,207 1861,207 1861,207 1861,207 1861,207 1861,207 1861,207 1861,207 1861,207 1861,207 1861,207 1861,207 " />
</g>

<g fill="#000000" fill-opacity="1" stroke="#000000" stroke-opacity="1" stroke-width="0.2" stroke-linecap="butt" stroke-linejoin="round" transform="matrix(0.509987,0,0,0.507024,-913.417,-99.6513)"
font-family="Times New Roman" font-size="20" font-weight="400" font-style="normal" 
>
<polyline fill="none" vector-effect="none" points="1861,2454 4108,207 " />
</g>
</g>
</svg>
